<svg xmlns="http://www.w3.org/2000/svg" width="20" height="20" viewBox="0 0 20 20">
  <defs>
    <style>
      .cls-1 {
        fill: #fd543a;
      }

      .cls-2 {
        fill: #fff;
        fill-rule: evenodd;
      }
    </style>
  </defs>
  <circle class="cls-1" cx="10" cy="10" r="10"/>
  <path id="Shape_319_1" data-name="Shape 319 1" class="cls-2" d="M10.975,9.737l3.608-3.346a0.466,0.466,0,0,0,0-.692l-0.316-.293a0.559,0.559,0,0,0-.746,0L9.912,8.751,6.3,5.406a0.559,0.559,0,0,0-.746,0L5.242,5.7a0.465,0.465,0,0,0,0,.692L8.85,9.737,5.242,13.082a0.466,0.466,0,0,0,0,.692l0.316,0.293a0.559,0.559,0,0,0,.746,0l3.608-3.346,3.608,3.346a0.545,0.545,0,0,0,.373.143h0a0.545,0.545,0,0,0,.373-0.143l0.316-.293a0.466,0.466,0,0,0,0-.692Z"/>
</svg>
