<svg xmlns="http://www.w3.org/2000/svg" width="14" height="15" viewBox="0 0 14 15">
  <metadata><?xpacket begin="﻿" id="W5M0MpCehiHzreSzNTczkc9d"?>
<x:xmpmeta xmlns:x="adobe:ns:meta/" x:xmptk="Adobe XMP Core 5.6-c138 79.159824, 2016/09/14-01:09:01        ">
   <rdf:RDF xmlns:rdf="http://www.w3.org/1999/02/22-rdf-syntax-ns#">
      <rdf:Description rdf:about=""/>
   </rdf:RDF>
</x:xmpmeta>
                                                                                                    
                                                                                                    
                                                                                                    
                                                                                                    
                                                                                                    
                                                                                                    
                                                                                                    
                                                                                                    
                                                                                                    
                                                                                                    
                                                                                                    
                                                                                                    
                                                                                                    
                                                                                                    
                                                                                                    
                                                                                                    
                                                                                                    
                                                                                                    
                                                                                                    
                                                                                                    
                           
<?xpacket end="w"?></metadata>
<defs>
    <style>
      .cls-1 {
        fill: #414141;
        fill-rule: evenodd;
      }
    </style>
  </defs>
  <path class="cls-1" d="M13.781,13.663L10.331,9.95A6.164,6.164,0,0,0,11.7,6.056,5.964,5.964,0,0,0,5.851,0,5.964,5.964,0,0,0,0,6.056a5.964,5.964,0,0,0,5.853,6.056,5.657,5.657,0,0,0,3.353-1.1l3.476,3.741a0.746,0.746,0,0,0,1.079.022A0.81,0.81,0,0,0,13.781,13.663ZM5.851,1.58a4.408,4.408,0,0,1,4.326,4.476,4.408,4.408,0,0,1-4.326,4.476A4.408,4.408,0,0,1,1.525,6.056,4.408,4.408,0,0,1,5.851,1.58Z"/>
</svg>
